<?xml version="1.0" encoding="UTF-8" standalone="no"?>
<!-- Created with Inkscape (http://www.inkscape.org/) -->

<svg
   xmlns:dc="http://purl.org/dc/elements/1.1/"
   xmlns:cc="http://creativecommons.org/ns#"
   xmlns:rdf="http://www.w3.org/1999/02/22-rdf-syntax-ns#"
   xmlns:svg="http://www.w3.org/2000/svg"
   xmlns="http://www.w3.org/2000/svg"
   xmlns:sodipodi="http://sodipodi.sourceforge.net/DTD/sodipodi-0.dtd"
   xmlns:inkscape="http://www.inkscape.org/namespaces/inkscape"
   width="210mm"
   height="297mm"
   id="svg2"
   version="1.1"
   inkscape:version="0.47 r22583"
   sodipodi:docname="Nuevo documento 1">
  <defs
     id="defs4">
    <inkscape:perspective
       sodipodi:type="inkscape:persp3d"
       inkscape:vp_x="0 : 526.18109 : 1"
       inkscape:vp_y="0 : 1000 : 0"
       inkscape:vp_z="744.09448 : 526.18109 : 1"
       inkscape:persp3d-origin="372.04724 : 350.78739 : 1"
       id="perspective10" />
    <inkscape:perspective
       id="perspective2855"
       inkscape:persp3d-origin="0.5 : 0.33333333 : 1"
       inkscape:vp_z="1 : 0.5 : 1"
       inkscape:vp_y="0 : 1000 : 0"
       inkscape:vp_x="0 : 0.5 : 1"
       sodipodi:type="inkscape:persp3d" />
  </defs>
  <sodipodi:namedview
     id="base"
     pagecolor="#ffffff"
     bordercolor="#666666"
     borderopacity="1.0"
     inkscape:pageopacity="0.0"
     inkscape:pageshadow="2"
     inkscape:zoom="3.292278"
     inkscape:cx="282.133"
     inkscape:cy="204.3087"
     inkscape:document-units="px"
     inkscape:current-layer="layer1"
     showgrid="false"
     inkscape:window-width="1920"
     inkscape:window-height="1005"
     inkscape:window-x="1920"
     inkscape:window-y="24"
     inkscape:window-maximized="1" />
  <metadata
     id="metadata7">
    <rdf:RDF>
      <cc:Work
         rdf:about="">
        <dc:format>image/svg+xml</dc:format>
        <dc:type
           rdf:resource="http://purl.org/dc/dcmitype/StillImage" />
        <dc:title></dc:title>
      </cc:Work>
    </rdf:RDF>
  </metadata>
  <g
     inkscape:label="Capa 1"
     inkscape:groupmode="layer"
     id="layer1">
    <path
       style="fill:#808080;fill-rule:evenodd;stroke:#000000;stroke-width:0.12452426px;stroke-linecap:butt;stroke-linejoin:miter;stroke-opacity:1"
       d="m 215.70528,824.44497 c -7.66326,0 -13.87466,6.21359 -13.87466,13.87685 0,7.66326 6.2114,13.87465 13.87466,13.87465 7.66325,0 13.87467,-6.21139 13.87467,-13.87465 0,-7.66326 -6.21142,-13.87685 -13.87467,-13.87685 z m 0,2.0188 c 6.5481,0 11.85587,5.30993 11.85587,11.85805 0,6.5481 -5.30777,11.85585 -11.85587,11.85585 -6.54811,0 -11.85586,-5.30775 -11.85586,-11.85585 0,-6.54812 5.30775,-11.85805 11.85586,-11.85805 z"
       id="path2819-8"
       inkscape:export-filename="/home/orens/robocomp/Components/RoboLab/Experimental/terapiaComp/src/radioButton_checked.png"
       inkscape:export-xdpi="90"
       inkscape:export-ydpi="90" />
    <path
       style="fill:#ff0000;fill-rule:evenodd;stroke:#000000;stroke-width:0.13402262px;stroke-linecap:butt;stroke-linejoin:miter;stroke-opacity:1"
       d="m 215.01282,822.42685 c -8.24779,0 -14.93298,6.68754 -14.93298,14.93533 0,8.24779 6.68519,14.93298 14.93298,14.93298 8.24779,0 14.93299,-6.68519 14.93299,-14.93298 0,-8.24779 -6.6852,-14.93533 -14.93299,-14.93533 z m 0,2.17279 c 7.04758,0 12.7602,5.71496 12.7602,12.76254 0,7.04758 -5.71262,12.76019 -12.7602,12.76019 -7.04758,0 -12.76019,-5.71261 -12.76019,-12.76019 0,-7.04758 5.71261,-12.76254 12.76019,-12.76254 z"
       id="path2819"
       inkscape:export-filename="/home/orens/robocomp/Components/RoboLab/Experimental/terapiaComp/src/radioButton_checked.png"
       inkscape:export-xdpi="90"
       inkscape:export-ydpi="90" />
    <path
       sodipodi:type="arc"
       style="fill:#ff0000;stroke:none"
       id="path2871"
       sodipodi:cx="112.38419"
       sodipodi:cy="851.28558"
       sodipodi:rx="6.9860444"
       sodipodi:ry="6.9860444"
       d="m 119.37024,851.28558 a 6.9860444,6.9860444 0 1 1 -13.97209,0 6.9860444,6.9860444 0 1 1 13.97209,0 z"
       transform="translate(102.62863,-13.924578)"
       inkscape:export-filename="/home/orens/robocomp/Components/RoboLab/Experimental/terapiaComp/src/radioButton_checked.png"
       inkscape:export-xdpi="90"
       inkscape:export-ydpi="90" />
  </g>
</svg>
